%TF.GenerationSoftware,KiCad,Pcbnew,(5.1.7)-1*%
%TF.CreationDate,2020-11-01T14:15:20+00:00*%
%TF.ProjectId,PLCC44-EPROM-Adapter,504c4343-3434-42d4-9550-524f4d2d4164,rev?*%
%TF.SameCoordinates,Original*%
%TF.FileFunction,Legend,Top*%
%TF.FilePolarity,Positive*%
%FSLAX46Y46*%
G04 Gerber Fmt 4.6, Leading zero omitted, Abs format (unit mm)*
G04 Created by KiCad (PCBNEW (5.1.7)-1) date 2020-11-01 14:15:20*
%MOMM*%
%LPD*%
G01*
G04 APERTURE LIST*
%ADD10C,0.150000*%
%ADD11C,0.120000*%
G04 APERTURE END LIST*
D10*
X88479809Y-93640666D02*
X88956000Y-93640666D01*
X88384571Y-93926380D02*
X88717904Y-92926380D01*
X89051238Y-93926380D01*
X89241714Y-92926380D02*
X89813142Y-92926380D01*
X89527428Y-93926380D02*
X89527428Y-92926380D01*
X90098857Y-93021619D02*
X90146476Y-92974000D01*
X90241714Y-92926380D01*
X90479809Y-92926380D01*
X90575047Y-92974000D01*
X90622666Y-93021619D01*
X90670285Y-93116857D01*
X90670285Y-93212095D01*
X90622666Y-93354952D01*
X90051238Y-93926380D01*
X90670285Y-93926380D01*
X91003619Y-92926380D02*
X91670285Y-92926380D01*
X91241714Y-93926380D01*
X92622666Y-93831142D02*
X92575047Y-93878761D01*
X92432190Y-93926380D01*
X92336952Y-93926380D01*
X92194095Y-93878761D01*
X92098857Y-93783523D01*
X92051238Y-93688285D01*
X92003619Y-93497809D01*
X92003619Y-93354952D01*
X92051238Y-93164476D01*
X92098857Y-93069238D01*
X92194095Y-92974000D01*
X92336952Y-92926380D01*
X92432190Y-92926380D01*
X92575047Y-92974000D01*
X92622666Y-93021619D01*
X93479809Y-93259714D02*
X93479809Y-93926380D01*
X93241714Y-92878761D02*
X93003619Y-93593047D01*
X93622666Y-93593047D01*
X94194095Y-92926380D02*
X94289333Y-92926380D01*
X94384571Y-92974000D01*
X94432190Y-93021619D01*
X94479809Y-93116857D01*
X94527428Y-93307333D01*
X94527428Y-93545428D01*
X94479809Y-93735904D01*
X94432190Y-93831142D01*
X94384571Y-93878761D01*
X94289333Y-93926380D01*
X94194095Y-93926380D01*
X94098857Y-93878761D01*
X94051238Y-93831142D01*
X94003619Y-93735904D01*
X93956000Y-93545428D01*
X93956000Y-93307333D01*
X94003619Y-93116857D01*
X94051238Y-93021619D01*
X94098857Y-92974000D01*
X94194095Y-92926380D01*
X95003619Y-93926380D02*
X95194095Y-93926380D01*
X95289333Y-93878761D01*
X95336952Y-93831142D01*
X95432190Y-93688285D01*
X95479809Y-93497809D01*
X95479809Y-93116857D01*
X95432190Y-93021619D01*
X95384571Y-92974000D01*
X95289333Y-92926380D01*
X95098857Y-92926380D01*
X95003619Y-92974000D01*
X94956000Y-93021619D01*
X94908380Y-93116857D01*
X94908380Y-93354952D01*
X94956000Y-93450190D01*
X95003619Y-93497809D01*
X95098857Y-93545428D01*
X95289333Y-93545428D01*
X95384571Y-93497809D01*
X95432190Y-93450190D01*
X95479809Y-93354952D01*
X96336952Y-92926380D02*
X96146476Y-92926380D01*
X96051238Y-92974000D01*
X96003619Y-93021619D01*
X95908380Y-93164476D01*
X95860761Y-93354952D01*
X95860761Y-93735904D01*
X95908380Y-93831142D01*
X95956000Y-93878761D01*
X96051238Y-93926380D01*
X96241714Y-93926380D01*
X96336952Y-93878761D01*
X96384571Y-93831142D01*
X96432190Y-93735904D01*
X96432190Y-93497809D01*
X96384571Y-93402571D01*
X96336952Y-93354952D01*
X96241714Y-93307333D01*
X96051238Y-93307333D01*
X95956000Y-93354952D01*
X95908380Y-93402571D01*
X95860761Y-93497809D01*
X89217904Y-95576380D02*
X89217904Y-94576380D01*
X89598857Y-94576380D01*
X89694095Y-94624000D01*
X89741714Y-94671619D01*
X89789333Y-94766857D01*
X89789333Y-94909714D01*
X89741714Y-95004952D01*
X89694095Y-95052571D01*
X89598857Y-95100190D01*
X89217904Y-95100190D01*
X90694095Y-95576380D02*
X90217904Y-95576380D01*
X90217904Y-94576380D01*
X91598857Y-95481142D02*
X91551238Y-95528761D01*
X91408380Y-95576380D01*
X91313142Y-95576380D01*
X91170285Y-95528761D01*
X91075047Y-95433523D01*
X91027428Y-95338285D01*
X90979809Y-95147809D01*
X90979809Y-95004952D01*
X91027428Y-94814476D01*
X91075047Y-94719238D01*
X91170285Y-94624000D01*
X91313142Y-94576380D01*
X91408380Y-94576380D01*
X91551238Y-94624000D01*
X91598857Y-94671619D01*
X92598857Y-95481142D02*
X92551238Y-95528761D01*
X92408380Y-95576380D01*
X92313142Y-95576380D01*
X92170285Y-95528761D01*
X92075047Y-95433523D01*
X92027428Y-95338285D01*
X91979809Y-95147809D01*
X91979809Y-95004952D01*
X92027428Y-94814476D01*
X92075047Y-94719238D01*
X92170285Y-94624000D01*
X92313142Y-94576380D01*
X92408380Y-94576380D01*
X92551238Y-94624000D01*
X92598857Y-94671619D01*
X93027428Y-95195428D02*
X93789333Y-95195428D01*
X94694095Y-94909714D02*
X94694095Y-95576380D01*
X94456000Y-94528761D02*
X94217904Y-95243047D01*
X94836952Y-95243047D01*
X95646476Y-94909714D02*
X95646476Y-95576380D01*
X95408380Y-94528761D02*
X95170285Y-95243047D01*
X95789333Y-95243047D01*
X91813142Y-96559714D02*
X92194095Y-96559714D01*
X91956000Y-96226380D02*
X91956000Y-97083523D01*
X92003619Y-97178761D01*
X92098857Y-97226380D01*
X92194095Y-97226380D01*
X92670285Y-97226380D02*
X92575047Y-97178761D01*
X92527428Y-97131142D01*
X92479809Y-97035904D01*
X92479809Y-96750190D01*
X92527428Y-96654952D01*
X92575047Y-96607333D01*
X92670285Y-96559714D01*
X92813142Y-96559714D01*
X92908380Y-96607333D01*
X92956000Y-96654952D01*
X93003619Y-96750190D01*
X93003619Y-97035904D01*
X92956000Y-97131142D01*
X92908380Y-97178761D01*
X92813142Y-97226380D01*
X92670285Y-97226380D01*
X89884571Y-98876380D02*
X89884571Y-97876380D01*
X90122666Y-97876380D01*
X90265523Y-97924000D01*
X90360761Y-98019238D01*
X90408380Y-98114476D01*
X90456000Y-98304952D01*
X90456000Y-98447809D01*
X90408380Y-98638285D01*
X90360761Y-98733523D01*
X90265523Y-98828761D01*
X90122666Y-98876380D01*
X89884571Y-98876380D01*
X90884571Y-98876380D02*
X90884571Y-97876380D01*
X91360761Y-98876380D02*
X91360761Y-97876380D01*
X91741714Y-97876380D01*
X91836952Y-97924000D01*
X91884571Y-97971619D01*
X91932190Y-98066857D01*
X91932190Y-98209714D01*
X91884571Y-98304952D01*
X91836952Y-98352571D01*
X91741714Y-98400190D01*
X91360761Y-98400190D01*
X92360761Y-98495428D02*
X93122666Y-98495428D01*
X94027428Y-98209714D02*
X94027428Y-98876380D01*
X93789333Y-97828761D02*
X93551238Y-98543047D01*
X94170285Y-98543047D01*
X94741714Y-97876380D02*
X94836952Y-97876380D01*
X94932190Y-97924000D01*
X94979809Y-97971619D01*
X95027428Y-98066857D01*
X95075047Y-98257333D01*
X95075047Y-98495428D01*
X95027428Y-98685904D01*
X94979809Y-98781142D01*
X94932190Y-98828761D01*
X94836952Y-98876380D01*
X94741714Y-98876380D01*
X94646476Y-98828761D01*
X94598857Y-98781142D01*
X94551238Y-98685904D01*
X94503619Y-98495428D01*
X94503619Y-98257333D01*
X94551238Y-98066857D01*
X94598857Y-97971619D01*
X94646476Y-97924000D01*
X94741714Y-97876380D01*
X89836952Y-100240666D02*
X90313142Y-100240666D01*
X89741714Y-100526380D02*
X90075047Y-99526380D01*
X90408380Y-100526380D01*
X91170285Y-100526380D02*
X91170285Y-99526380D01*
X91170285Y-100478761D02*
X91075047Y-100526380D01*
X90884571Y-100526380D01*
X90789333Y-100478761D01*
X90741714Y-100431142D01*
X90694095Y-100335904D01*
X90694095Y-100050190D01*
X90741714Y-99954952D01*
X90789333Y-99907333D01*
X90884571Y-99859714D01*
X91075047Y-99859714D01*
X91170285Y-99907333D01*
X92075047Y-100526380D02*
X92075047Y-100002571D01*
X92027428Y-99907333D01*
X91932190Y-99859714D01*
X91741714Y-99859714D01*
X91646476Y-99907333D01*
X92075047Y-100478761D02*
X91979809Y-100526380D01*
X91741714Y-100526380D01*
X91646476Y-100478761D01*
X91598857Y-100383523D01*
X91598857Y-100288285D01*
X91646476Y-100193047D01*
X91741714Y-100145428D01*
X91979809Y-100145428D01*
X92075047Y-100097809D01*
X92551238Y-99859714D02*
X92551238Y-100859714D01*
X92551238Y-99907333D02*
X92646476Y-99859714D01*
X92836952Y-99859714D01*
X92932190Y-99907333D01*
X92979809Y-99954952D01*
X93027428Y-100050190D01*
X93027428Y-100335904D01*
X92979809Y-100431142D01*
X92932190Y-100478761D01*
X92836952Y-100526380D01*
X92646476Y-100526380D01*
X92551238Y-100478761D01*
X93313142Y-99859714D02*
X93694095Y-99859714D01*
X93456000Y-99526380D02*
X93456000Y-100383523D01*
X93503619Y-100478761D01*
X93598857Y-100526380D01*
X93694095Y-100526380D01*
X94408380Y-100478761D02*
X94313142Y-100526380D01*
X94122666Y-100526380D01*
X94027428Y-100478761D01*
X93979809Y-100383523D01*
X93979809Y-100002571D01*
X94027428Y-99907333D01*
X94122666Y-99859714D01*
X94313142Y-99859714D01*
X94408380Y-99907333D01*
X94456000Y-100002571D01*
X94456000Y-100097809D01*
X93979809Y-100193047D01*
X94884571Y-100526380D02*
X94884571Y-99859714D01*
X94884571Y-100050190D02*
X94932190Y-99954952D01*
X94979809Y-99907333D01*
X95075047Y-99859714D01*
X95170285Y-99859714D01*
X87566428Y-83010261D02*
X86423571Y-83010261D01*
X86995000Y-83010261D02*
X86995000Y-81010261D01*
X86804523Y-81295976D01*
X86614047Y-81486452D01*
X86423571Y-81581690D01*
D11*
%TO.C,U2*%
X93574000Y-80362500D02*
G75*
G02*
X91574000Y-80362500I-1000000J0D01*
G01*
X91574000Y-80362500D02*
X86114000Y-80362500D01*
X86114000Y-80362500D02*
X86114000Y-131282500D01*
X86114000Y-131282500D02*
X99034000Y-131282500D01*
X99034000Y-131282500D02*
X99034000Y-80362500D01*
X99034000Y-80362500D02*
X93574000Y-80362500D01*
%TO.C,U1*%
X91583000Y-134835000D02*
X81733000Y-134835000D01*
X81733000Y-134835000D02*
X80733000Y-135835000D01*
X80733000Y-135835000D02*
X80733000Y-158535000D01*
X80733000Y-158535000D02*
X104433000Y-158535000D01*
X104433000Y-158535000D02*
X104433000Y-134835000D01*
X104433000Y-134835000D02*
X93583000Y-134835000D01*
%TO.C,U2*%
D10*
X91812095Y-78814880D02*
X91812095Y-79624404D01*
X91859714Y-79719642D01*
X91907333Y-79767261D01*
X92002571Y-79814880D01*
X92193047Y-79814880D01*
X92288285Y-79767261D01*
X92335904Y-79719642D01*
X92383523Y-79624404D01*
X92383523Y-78814880D01*
X92812095Y-78910119D02*
X92859714Y-78862500D01*
X92954952Y-78814880D01*
X93193047Y-78814880D01*
X93288285Y-78862500D01*
X93335904Y-78910119D01*
X93383523Y-79005357D01*
X93383523Y-79100595D01*
X93335904Y-79243452D01*
X92764476Y-79814880D01*
X93383523Y-79814880D01*
%TO.C,U1*%
X91821095Y-133387380D02*
X91821095Y-134196904D01*
X91868714Y-134292142D01*
X91916333Y-134339761D01*
X92011571Y-134387380D01*
X92202047Y-134387380D01*
X92297285Y-134339761D01*
X92344904Y-134292142D01*
X92392523Y-134196904D01*
X92392523Y-133387380D01*
X93392523Y-134387380D02*
X92821095Y-134387380D01*
X93106809Y-134387380D02*
X93106809Y-133387380D01*
X93011571Y-133530238D01*
X92916333Y-133625476D01*
X92821095Y-133673095D01*
%TD*%
M02*
