%FSLAX45Y45*%
G04 Gerber Fmt 4.5, Leading zero omitted, Abs format (unit mm)*
G04 Created by KiCad (PCBNEW (5.1.7)-1) date 2020-11-01 14:15:27*
%MOMM*%
%LPD*%
G01*
G04 APERTURE LIST*
%TA.AperFunction,Profile*%
%ADD10C,0.050000*%
%TD*%
%ADD11C,0.200000*%
%ADD12C,0.300000*%
G04 APERTURE END LIST*
D10*
X10541000Y-16002000D02*
X7937500Y-16002000D01*
X10541000Y-7874000D02*
X10541000Y-16002000D01*
X7937500Y-7874000D02*
X10541000Y-7874000D01*
X7937500Y-16002000D02*
X7937500Y-7874000D01*
D11*
D12*
X8221428Y-16470214D02*
X8221428Y-16170214D01*
X8292857Y-16170214D01*
X8335714Y-16184500D01*
X8364286Y-16213071D01*
X8378571Y-16241643D01*
X8392857Y-16298786D01*
X8392857Y-16341643D01*
X8378571Y-16398786D01*
X8364286Y-16427357D01*
X8335714Y-16455929D01*
X8292857Y-16470214D01*
X8221428Y-16470214D01*
X8521428Y-16470214D02*
X8521428Y-16270214D01*
X8521428Y-16327357D02*
X8535714Y-16298786D01*
X8550000Y-16284500D01*
X8578571Y-16270214D01*
X8607143Y-16270214D01*
X8707143Y-16470214D02*
X8707143Y-16270214D01*
X8707143Y-16170214D02*
X8692857Y-16184500D01*
X8707143Y-16198786D01*
X8721428Y-16184500D01*
X8707143Y-16170214D01*
X8707143Y-16198786D01*
X8892857Y-16470214D02*
X8864286Y-16455929D01*
X8850000Y-16427357D01*
X8850000Y-16170214D01*
X9050000Y-16470214D02*
X9021428Y-16455929D01*
X9007143Y-16427357D01*
X9007143Y-16170214D01*
X9392857Y-16470214D02*
X9392857Y-16170214D01*
X9492857Y-16384500D01*
X9592857Y-16170214D01*
X9592857Y-16470214D01*
X9864286Y-16470214D02*
X9864286Y-16313071D01*
X9850000Y-16284500D01*
X9821428Y-16270214D01*
X9764286Y-16270214D01*
X9735714Y-16284500D01*
X9864286Y-16455929D02*
X9835714Y-16470214D01*
X9764286Y-16470214D01*
X9735714Y-16455929D01*
X9721428Y-16427357D01*
X9721428Y-16398786D01*
X9735714Y-16370214D01*
X9764286Y-16355929D01*
X9835714Y-16355929D01*
X9864286Y-16341643D01*
X10007143Y-16270214D02*
X10007143Y-16570214D01*
X10007143Y-16284500D02*
X10035714Y-16270214D01*
X10092857Y-16270214D01*
X10121428Y-16284500D01*
X10135714Y-16298786D01*
X10150000Y-16327357D01*
X10150000Y-16413071D01*
X10135714Y-16441643D01*
X10121428Y-16455929D01*
X10092857Y-16470214D01*
X10035714Y-16470214D01*
X10007143Y-16455929D01*
X10278571Y-16441643D02*
X10292857Y-16455929D01*
X10278571Y-16470214D01*
X10264286Y-16455929D01*
X10278571Y-16441643D01*
X10278571Y-16470214D01*
X10278571Y-16284500D02*
X10292857Y-16298786D01*
X10278571Y-16313071D01*
X10264286Y-16298786D01*
X10278571Y-16284500D01*
X10278571Y-16313071D01*
M02*
