%FSLAX45Y45*%
G04 Gerber Fmt 4.5, Leading zero omitted, Abs format (unit mm)*
G04 Created by KiCad (PCBNEW (5.1.7)-1) date 2020-11-01 14:15:27*
%MOMM*%
%LPD*%
G01*
G04 APERTURE LIST*
%TA.AperFunction,Profile*%
%ADD10C,0.050000*%
%TD*%
%ADD11C,0.200000*%
%ADD12C,0.300000*%
G04 APERTURE END LIST*
D10*
X10541000Y-16002000D02*
X7937500Y-16002000D01*
X10541000Y-7874000D02*
X10541000Y-16002000D01*
X7937500Y-7874000D02*
X10541000Y-7874000D01*
X7937500Y-16002000D02*
X7937500Y-7874000D01*
D11*
X8930140Y-11235930D02*
X8970140Y-11275930D01*
X8970140Y-11235930D02*
X8930140Y-11275930D01*
X8977140Y-12227640D02*
X9017140Y-12267640D01*
X9017140Y-12227640D02*
X8977140Y-12267640D01*
X9616810Y-13082000D02*
X9656810Y-13122000D01*
X9656810Y-13082000D02*
X9616810Y-13122000D01*
X10236320Y-10258510D02*
X10276320Y-10298510D01*
X10276320Y-10258510D02*
X10236320Y-10298510D01*
X10283940Y-12497790D02*
X10323940Y-12537790D01*
X10323940Y-12497790D02*
X10283940Y-12537790D01*
X10358040Y-11386280D02*
X10398040Y-11426280D01*
X10398040Y-11386280D02*
X10358040Y-11426280D01*
X8535400Y-8169250D02*
G75*
G03*
X8535400Y-8169250I-40000J0D01*
G01*
X8535400Y-8423250D02*
G75*
G03*
X8535400Y-8423250I-40000J0D01*
G01*
X8535400Y-8677250D02*
G75*
G03*
X8535400Y-8677250I-40000J0D01*
G01*
X8535400Y-8931250D02*
G75*
G03*
X8535400Y-8931250I-40000J0D01*
G01*
X8535400Y-9185250D02*
G75*
G03*
X8535400Y-9185250I-40000J0D01*
G01*
X8535400Y-9439250D02*
G75*
G03*
X8535400Y-9439250I-40000J0D01*
G01*
X8535400Y-9693250D02*
G75*
G03*
X8535400Y-9693250I-40000J0D01*
G01*
X8535400Y-9947250D02*
G75*
G03*
X8535400Y-9947250I-40000J0D01*
G01*
X8535400Y-10201250D02*
G75*
G03*
X8535400Y-10201250I-40000J0D01*
G01*
X8535400Y-10455250D02*
G75*
G03*
X8535400Y-10455250I-40000J0D01*
G01*
X8535400Y-10709250D02*
G75*
G03*
X8535400Y-10709250I-40000J0D01*
G01*
X8535400Y-10963250D02*
G75*
G03*
X8535400Y-10963250I-40000J0D01*
G01*
X8535400Y-11217250D02*
G75*
G03*
X8535400Y-11217250I-40000J0D01*
G01*
X8535400Y-11471250D02*
G75*
G03*
X8535400Y-11471250I-40000J0D01*
G01*
X8535400Y-11725250D02*
G75*
G03*
X8535400Y-11725250I-40000J0D01*
G01*
X8535400Y-11979250D02*
G75*
G03*
X8535400Y-11979250I-40000J0D01*
G01*
X8535400Y-12233250D02*
G75*
G03*
X8535400Y-12233250I-40000J0D01*
G01*
X8535400Y-12487250D02*
G75*
G03*
X8535400Y-12487250I-40000J0D01*
G01*
X8535400Y-12741250D02*
G75*
G03*
X8535400Y-12741250I-40000J0D01*
G01*
X8535400Y-12995250D02*
G75*
G03*
X8535400Y-12995250I-40000J0D01*
G01*
X10059400Y-8169250D02*
G75*
G03*
X10059400Y-8169250I-40000J0D01*
G01*
X10059400Y-8423250D02*
G75*
G03*
X10059400Y-8423250I-40000J0D01*
G01*
X10059400Y-8677250D02*
G75*
G03*
X10059400Y-8677250I-40000J0D01*
G01*
X10059400Y-8931250D02*
G75*
G03*
X10059400Y-8931250I-40000J0D01*
G01*
X10059400Y-9185250D02*
G75*
G03*
X10059400Y-9185250I-40000J0D01*
G01*
X10059400Y-9439250D02*
G75*
G03*
X10059400Y-9439250I-40000J0D01*
G01*
X10059400Y-9693250D02*
G75*
G03*
X10059400Y-9693250I-40000J0D01*
G01*
X10059400Y-9947250D02*
G75*
G03*
X10059400Y-9947250I-40000J0D01*
G01*
X10059400Y-10201250D02*
G75*
G03*
X10059400Y-10201250I-40000J0D01*
G01*
X10059400Y-10455250D02*
G75*
G03*
X10059400Y-10455250I-40000J0D01*
G01*
X10059400Y-10709250D02*
G75*
G03*
X10059400Y-10709250I-40000J0D01*
G01*
X10059400Y-10963250D02*
G75*
G03*
X10059400Y-10963250I-40000J0D01*
G01*
X10059400Y-11217250D02*
G75*
G03*
X10059400Y-11217250I-40000J0D01*
G01*
X10059400Y-11471250D02*
G75*
G03*
X10059400Y-11471250I-40000J0D01*
G01*
X10059400Y-11725250D02*
G75*
G03*
X10059400Y-11725250I-40000J0D01*
G01*
X10059400Y-11979250D02*
G75*
G03*
X10059400Y-11979250I-40000J0D01*
G01*
X10059400Y-12233250D02*
G75*
G03*
X10059400Y-12233250I-40000J0D01*
G01*
X10059400Y-12487250D02*
G75*
G03*
X10059400Y-12487250I-40000J0D01*
G01*
X10059400Y-12741250D02*
G75*
G03*
X10059400Y-12741250I-40000J0D01*
G01*
X10059400Y-12995250D02*
G75*
G03*
X10059400Y-12995250I-40000J0D01*
G01*
X8409300Y-14033500D02*
G75*
G03*
X8409300Y-14033500I-40000J0D01*
G01*
X8409300Y-14287500D02*
G75*
G03*
X8409300Y-14287500I-40000J0D01*
G01*
X8409300Y-14541500D02*
G75*
G03*
X8409300Y-14541500I-40000J0D01*
G01*
X8409300Y-14795500D02*
G75*
G03*
X8409300Y-14795500I-40000J0D01*
G01*
X8409300Y-15049500D02*
G75*
G03*
X8409300Y-15049500I-40000J0D01*
G01*
X8409300Y-15303500D02*
G75*
G03*
X8409300Y-15303500I-40000J0D01*
G01*
X8663300Y-13779500D02*
G75*
G03*
X8663300Y-13779500I-40000J0D01*
G01*
X8663300Y-14033500D02*
G75*
G03*
X8663300Y-14033500I-40000J0D01*
G01*
X8663300Y-14287500D02*
G75*
G03*
X8663300Y-14287500I-40000J0D01*
G01*
X8663300Y-14541500D02*
G75*
G03*
X8663300Y-14541500I-40000J0D01*
G01*
X8663300Y-14795500D02*
G75*
G03*
X8663300Y-14795500I-40000J0D01*
G01*
X8663300Y-15049500D02*
G75*
G03*
X8663300Y-15049500I-40000J0D01*
G01*
X8663300Y-15303500D02*
G75*
G03*
X8663300Y-15303500I-40000J0D01*
G01*
X8663300Y-15557500D02*
G75*
G03*
X8663300Y-15557500I-40000J0D01*
G01*
X8917300Y-13779500D02*
G75*
G03*
X8917300Y-13779500I-40000J0D01*
G01*
X8917300Y-14033500D02*
G75*
G03*
X8917300Y-14033500I-40000J0D01*
G01*
X8917300Y-15303500D02*
G75*
G03*
X8917300Y-15303500I-40000J0D01*
G01*
X8917300Y-15557500D02*
G75*
G03*
X8917300Y-15557500I-40000J0D01*
G01*
X9171300Y-13779500D02*
G75*
G03*
X9171300Y-13779500I-40000J0D01*
G01*
X9171300Y-14033500D02*
G75*
G03*
X9171300Y-14033500I-40000J0D01*
G01*
X9171300Y-15303500D02*
G75*
G03*
X9171300Y-15303500I-40000J0D01*
G01*
X9171300Y-15557500D02*
G75*
G03*
X9171300Y-15557500I-40000J0D01*
G01*
X9425300Y-13779500D02*
G75*
G03*
X9425300Y-13779500I-40000J0D01*
G01*
X9425300Y-14033500D02*
G75*
G03*
X9425300Y-14033500I-40000J0D01*
G01*
X9425300Y-15303500D02*
G75*
G03*
X9425300Y-15303500I-40000J0D01*
G01*
X9425300Y-15557500D02*
G75*
G03*
X9425300Y-15557500I-40000J0D01*
G01*
X9679300Y-13779500D02*
G75*
G03*
X9679300Y-13779500I-40000J0D01*
G01*
X9679300Y-14033500D02*
G75*
G03*
X9679300Y-14033500I-40000J0D01*
G01*
X9679300Y-15303500D02*
G75*
G03*
X9679300Y-15303500I-40000J0D01*
G01*
X9679300Y-15557500D02*
G75*
G03*
X9679300Y-15557500I-40000J0D01*
G01*
X9933300Y-13779500D02*
G75*
G03*
X9933300Y-13779500I-40000J0D01*
G01*
X9933300Y-14033500D02*
G75*
G03*
X9933300Y-14033500I-40000J0D01*
G01*
X9933300Y-14287500D02*
G75*
G03*
X9933300Y-14287500I-40000J0D01*
G01*
X9933300Y-14541500D02*
G75*
G03*
X9933300Y-14541500I-40000J0D01*
G01*
X9933300Y-14795500D02*
G75*
G03*
X9933300Y-14795500I-40000J0D01*
G01*
X9933300Y-15049500D02*
G75*
G03*
X9933300Y-15049500I-40000J0D01*
G01*
X9933300Y-15303500D02*
G75*
G03*
X9933300Y-15303500I-40000J0D01*
G01*
X9933300Y-15557500D02*
G75*
G03*
X9933300Y-15557500I-40000J0D01*
G01*
X10187300Y-14033500D02*
G75*
G03*
X10187300Y-14033500I-40000J0D01*
G01*
X10187300Y-14287500D02*
G75*
G03*
X10187300Y-14287500I-40000J0D01*
G01*
X10187300Y-14541500D02*
G75*
G03*
X10187300Y-14541500I-40000J0D01*
G01*
X10187300Y-14795500D02*
G75*
G03*
X10187300Y-14795500I-40000J0D01*
G01*
X10187300Y-15049500D02*
G75*
G03*
X10187300Y-15049500I-40000J0D01*
G01*
X10187300Y-15303500D02*
G75*
G03*
X10187300Y-15303500I-40000J0D01*
G01*
D12*
X8221428Y-16470214D02*
X8221428Y-16170214D01*
X8292857Y-16170214D01*
X8335714Y-16184500D01*
X8364286Y-16213071D01*
X8378571Y-16241643D01*
X8392857Y-16298786D01*
X8392857Y-16341643D01*
X8378571Y-16398786D01*
X8364286Y-16427357D01*
X8335714Y-16455929D01*
X8292857Y-16470214D01*
X8221428Y-16470214D01*
X8521428Y-16470214D02*
X8521428Y-16270214D01*
X8521428Y-16327357D02*
X8535714Y-16298786D01*
X8550000Y-16284500D01*
X8578571Y-16270214D01*
X8607143Y-16270214D01*
X8707143Y-16470214D02*
X8707143Y-16270214D01*
X8707143Y-16170214D02*
X8692857Y-16184500D01*
X8707143Y-16198786D01*
X8721428Y-16184500D01*
X8707143Y-16170214D01*
X8707143Y-16198786D01*
X8892857Y-16470214D02*
X8864286Y-16455929D01*
X8850000Y-16427357D01*
X8850000Y-16170214D01*
X9050000Y-16470214D02*
X9021428Y-16455929D01*
X9007143Y-16427357D01*
X9007143Y-16170214D01*
X9392857Y-16470214D02*
X9392857Y-16170214D01*
X9492857Y-16384500D01*
X9592857Y-16170214D01*
X9592857Y-16470214D01*
X9864286Y-16470214D02*
X9864286Y-16313071D01*
X9850000Y-16284500D01*
X9821428Y-16270214D01*
X9764286Y-16270214D01*
X9735714Y-16284500D01*
X9864286Y-16455929D02*
X9835714Y-16470214D01*
X9764286Y-16470214D01*
X9735714Y-16455929D01*
X9721428Y-16427357D01*
X9721428Y-16398786D01*
X9735714Y-16370214D01*
X9764286Y-16355929D01*
X9835714Y-16355929D01*
X9864286Y-16341643D01*
X10007143Y-16270214D02*
X10007143Y-16570214D01*
X10007143Y-16284500D02*
X10035714Y-16270214D01*
X10092857Y-16270214D01*
X10121428Y-16284500D01*
X10135714Y-16298786D01*
X10150000Y-16327357D01*
X10150000Y-16413071D01*
X10135714Y-16441643D01*
X10121428Y-16455929D01*
X10092857Y-16470214D01*
X10035714Y-16470214D01*
X10007143Y-16455929D01*
X10278571Y-16441643D02*
X10292857Y-16455929D01*
X10278571Y-16470214D01*
X10264286Y-16455929D01*
X10278571Y-16441643D01*
X10278571Y-16470214D01*
X10278571Y-16284500D02*
X10292857Y-16298786D01*
X10278571Y-16313071D01*
X10264286Y-16298786D01*
X10278571Y-16284500D01*
X10278571Y-16313071D01*
X7895000Y-16944500D02*
X7935000Y-16984500D01*
X7935000Y-16944500D02*
X7895000Y-16984500D01*
X8278571Y-16800214D02*
X8307143Y-16800214D01*
X8335714Y-16814500D01*
X8350000Y-16828786D01*
X8364286Y-16857357D01*
X8378571Y-16914500D01*
X8378571Y-16985929D01*
X8364286Y-17043072D01*
X8350000Y-17071643D01*
X8335714Y-17085929D01*
X8307143Y-17100214D01*
X8278571Y-17100214D01*
X8250000Y-17085929D01*
X8235714Y-17071643D01*
X8221428Y-17043072D01*
X8207143Y-16985929D01*
X8207143Y-16914500D01*
X8221428Y-16857357D01*
X8235714Y-16828786D01*
X8250000Y-16814500D01*
X8278571Y-16800214D01*
X8507143Y-17071643D02*
X8521428Y-17085929D01*
X8507143Y-17100214D01*
X8492857Y-17085929D01*
X8507143Y-17071643D01*
X8507143Y-17100214D01*
X8778571Y-16900214D02*
X8778571Y-17100214D01*
X8707143Y-16785929D02*
X8635714Y-17000214D01*
X8821428Y-17000214D01*
X8992857Y-16800214D02*
X9021428Y-16800214D01*
X9050000Y-16814500D01*
X9064286Y-16828786D01*
X9078571Y-16857357D01*
X9092857Y-16914500D01*
X9092857Y-16985929D01*
X9078571Y-17043072D01*
X9064286Y-17071643D01*
X9050000Y-17085929D01*
X9021428Y-17100214D01*
X8992857Y-17100214D01*
X8964286Y-17085929D01*
X8950000Y-17071643D01*
X8935714Y-17043072D01*
X8921428Y-16985929D01*
X8921428Y-16914500D01*
X8935714Y-16857357D01*
X8950000Y-16828786D01*
X8964286Y-16814500D01*
X8992857Y-16800214D01*
X9221428Y-17100214D02*
X9221428Y-16900214D01*
X9221428Y-16928786D02*
X9235714Y-16914500D01*
X9264286Y-16900214D01*
X9307143Y-16900214D01*
X9335714Y-16914500D01*
X9350000Y-16943072D01*
X9350000Y-17100214D01*
X9350000Y-16943072D02*
X9364286Y-16914500D01*
X9392857Y-16900214D01*
X9435714Y-16900214D01*
X9464286Y-16914500D01*
X9478571Y-16943072D01*
X9478571Y-17100214D01*
X9621428Y-17100214D02*
X9621428Y-16900214D01*
X9621428Y-16928786D02*
X9635714Y-16914500D01*
X9664286Y-16900214D01*
X9707143Y-16900214D01*
X9735714Y-16914500D01*
X9750000Y-16943072D01*
X9750000Y-17100214D01*
X9750000Y-16943072D02*
X9764286Y-16914500D01*
X9792857Y-16900214D01*
X9835714Y-16900214D01*
X9864286Y-16914500D01*
X9878571Y-16943072D01*
X9878571Y-17100214D01*
X10464286Y-16785929D02*
X10207143Y-17171643D01*
X10850000Y-16800214D02*
X10878571Y-16800214D01*
X10907143Y-16814500D01*
X10921428Y-16828786D01*
X10935714Y-16857357D01*
X10950000Y-16914500D01*
X10950000Y-16985929D01*
X10935714Y-17043072D01*
X10921428Y-17071643D01*
X10907143Y-17085929D01*
X10878571Y-17100214D01*
X10850000Y-17100214D01*
X10821428Y-17085929D01*
X10807143Y-17071643D01*
X10792857Y-17043072D01*
X10778571Y-16985929D01*
X10778571Y-16914500D01*
X10792857Y-16857357D01*
X10807143Y-16828786D01*
X10821428Y-16814500D01*
X10850000Y-16800214D01*
X11078571Y-17071643D02*
X11092857Y-17085929D01*
X11078571Y-17100214D01*
X11064286Y-17085929D01*
X11078571Y-17071643D01*
X11078571Y-17100214D01*
X11278571Y-16800214D02*
X11307143Y-16800214D01*
X11335714Y-16814500D01*
X11350000Y-16828786D01*
X11364286Y-16857357D01*
X11378571Y-16914500D01*
X11378571Y-16985929D01*
X11364286Y-17043072D01*
X11350000Y-17071643D01*
X11335714Y-17085929D01*
X11307143Y-17100214D01*
X11278571Y-17100214D01*
X11250000Y-17085929D01*
X11235714Y-17071643D01*
X11221428Y-17043072D01*
X11207143Y-16985929D01*
X11207143Y-16914500D01*
X11221428Y-16857357D01*
X11235714Y-16828786D01*
X11250000Y-16814500D01*
X11278571Y-16800214D01*
X11664286Y-17100214D02*
X11492857Y-17100214D01*
X11578571Y-17100214D02*
X11578571Y-16800214D01*
X11550000Y-16843072D01*
X11521428Y-16871643D01*
X11492857Y-16885929D01*
X11921428Y-16800214D02*
X11864286Y-16800214D01*
X11835714Y-16814500D01*
X11821428Y-16828786D01*
X11792857Y-16871643D01*
X11778571Y-16928786D01*
X11778571Y-17043072D01*
X11792857Y-17071643D01*
X11807143Y-17085929D01*
X11835714Y-17100214D01*
X11892857Y-17100214D01*
X11921428Y-17085929D01*
X11935714Y-17071643D01*
X11950000Y-17043072D01*
X11950000Y-16971643D01*
X11935714Y-16943072D01*
X11921428Y-16928786D01*
X11892857Y-16914500D01*
X11835714Y-16914500D01*
X11807143Y-16928786D01*
X11792857Y-16943072D01*
X11778571Y-16971643D01*
X12064286Y-16800214D02*
X12064286Y-16857357D01*
X12178571Y-16800214D02*
X12178571Y-16857357D01*
X12621428Y-17214500D02*
X12607143Y-17200214D01*
X12578571Y-17157357D01*
X12564286Y-17128786D01*
X12550000Y-17085929D01*
X12535714Y-17014500D01*
X12535714Y-16957357D01*
X12550000Y-16885929D01*
X12564286Y-16843072D01*
X12578571Y-16814500D01*
X12607143Y-16771643D01*
X12621428Y-16757357D01*
X12864286Y-16800214D02*
X12807143Y-16800214D01*
X12778571Y-16814500D01*
X12764286Y-16828786D01*
X12735714Y-16871643D01*
X12721428Y-16928786D01*
X12721428Y-17043072D01*
X12735714Y-17071643D01*
X12750000Y-17085929D01*
X12778571Y-17100214D01*
X12835714Y-17100214D01*
X12864286Y-17085929D01*
X12878571Y-17071643D01*
X12892857Y-17043072D01*
X12892857Y-16971643D01*
X12878571Y-16943072D01*
X12864286Y-16928786D01*
X12835714Y-16914500D01*
X12778571Y-16914500D01*
X12750000Y-16928786D01*
X12735714Y-16943072D01*
X12721428Y-16971643D01*
X13250000Y-17100214D02*
X13250000Y-16800214D01*
X13378571Y-17100214D02*
X13378571Y-16943072D01*
X13364286Y-16914500D01*
X13335714Y-16900214D01*
X13292857Y-16900214D01*
X13264286Y-16914500D01*
X13250000Y-16928786D01*
X13564286Y-17100214D02*
X13535714Y-17085929D01*
X13521428Y-17071643D01*
X13507143Y-17043072D01*
X13507143Y-16957357D01*
X13521428Y-16928786D01*
X13535714Y-16914500D01*
X13564286Y-16900214D01*
X13607143Y-16900214D01*
X13635714Y-16914500D01*
X13650000Y-16928786D01*
X13664286Y-16957357D01*
X13664286Y-17043072D01*
X13650000Y-17071643D01*
X13635714Y-17085929D01*
X13607143Y-17100214D01*
X13564286Y-17100214D01*
X13835714Y-17100214D02*
X13807143Y-17085929D01*
X13792857Y-17057357D01*
X13792857Y-16800214D01*
X14064286Y-17085929D02*
X14035714Y-17100214D01*
X13978571Y-17100214D01*
X13950000Y-17085929D01*
X13935714Y-17057357D01*
X13935714Y-16943072D01*
X13950000Y-16914500D01*
X13978571Y-16900214D01*
X14035714Y-16900214D01*
X14064286Y-16914500D01*
X14078571Y-16943072D01*
X14078571Y-16971643D01*
X13935714Y-17000214D01*
X14192857Y-17085929D02*
X14221428Y-17100214D01*
X14278571Y-17100214D01*
X14307143Y-17085929D01*
X14321428Y-17057357D01*
X14321428Y-17043072D01*
X14307143Y-17014500D01*
X14278571Y-17000214D01*
X14235714Y-17000214D01*
X14207143Y-16985929D01*
X14192857Y-16957357D01*
X14192857Y-16943072D01*
X14207143Y-16914500D01*
X14235714Y-16900214D01*
X14278571Y-16900214D01*
X14307143Y-16914500D01*
X14421428Y-17214500D02*
X14435714Y-17200214D01*
X14464286Y-17157357D01*
X14478571Y-17128786D01*
X14492857Y-17085929D01*
X14507143Y-17014500D01*
X14507143Y-16957357D01*
X14492857Y-16885929D01*
X14478571Y-16843072D01*
X14464286Y-16814500D01*
X14435714Y-16771643D01*
X14421428Y-16757357D01*
X7935000Y-17360500D02*
G75*
G03*
X7935000Y-17360500I-40000J0D01*
G01*
X8278571Y-17196214D02*
X8307143Y-17196214D01*
X8335714Y-17210500D01*
X8350000Y-17224786D01*
X8364286Y-17253357D01*
X8378571Y-17310500D01*
X8378571Y-17381929D01*
X8364286Y-17439072D01*
X8350000Y-17467643D01*
X8335714Y-17481929D01*
X8307143Y-17496214D01*
X8278571Y-17496214D01*
X8250000Y-17481929D01*
X8235714Y-17467643D01*
X8221428Y-17439072D01*
X8207143Y-17381929D01*
X8207143Y-17310500D01*
X8221428Y-17253357D01*
X8235714Y-17224786D01*
X8250000Y-17210500D01*
X8278571Y-17196214D01*
X8507143Y-17467643D02*
X8521428Y-17481929D01*
X8507143Y-17496214D01*
X8492857Y-17481929D01*
X8507143Y-17467643D01*
X8507143Y-17496214D01*
X8692857Y-17324786D02*
X8664286Y-17310500D01*
X8650000Y-17296214D01*
X8635714Y-17267643D01*
X8635714Y-17253357D01*
X8650000Y-17224786D01*
X8664286Y-17210500D01*
X8692857Y-17196214D01*
X8750000Y-17196214D01*
X8778571Y-17210500D01*
X8792857Y-17224786D01*
X8807143Y-17253357D01*
X8807143Y-17267643D01*
X8792857Y-17296214D01*
X8778571Y-17310500D01*
X8750000Y-17324786D01*
X8692857Y-17324786D01*
X8664286Y-17339072D01*
X8650000Y-17353357D01*
X8635714Y-17381929D01*
X8635714Y-17439072D01*
X8650000Y-17467643D01*
X8664286Y-17481929D01*
X8692857Y-17496214D01*
X8750000Y-17496214D01*
X8778571Y-17481929D01*
X8792857Y-17467643D01*
X8807143Y-17439072D01*
X8807143Y-17381929D01*
X8792857Y-17353357D01*
X8778571Y-17339072D01*
X8750000Y-17324786D01*
X8992857Y-17196214D02*
X9021428Y-17196214D01*
X9050000Y-17210500D01*
X9064286Y-17224786D01*
X9078571Y-17253357D01*
X9092857Y-17310500D01*
X9092857Y-17381929D01*
X9078571Y-17439072D01*
X9064286Y-17467643D01*
X9050000Y-17481929D01*
X9021428Y-17496214D01*
X8992857Y-17496214D01*
X8964286Y-17481929D01*
X8950000Y-17467643D01*
X8935714Y-17439072D01*
X8921428Y-17381929D01*
X8921428Y-17310500D01*
X8935714Y-17253357D01*
X8950000Y-17224786D01*
X8964286Y-17210500D01*
X8992857Y-17196214D01*
X9221428Y-17496214D02*
X9221428Y-17296214D01*
X9221428Y-17324786D02*
X9235714Y-17310500D01*
X9264286Y-17296214D01*
X9307143Y-17296214D01*
X9335714Y-17310500D01*
X9350000Y-17339072D01*
X9350000Y-17496214D01*
X9350000Y-17339072D02*
X9364286Y-17310500D01*
X9392857Y-17296214D01*
X9435714Y-17296214D01*
X9464286Y-17310500D01*
X9478571Y-17339072D01*
X9478571Y-17496214D01*
X9621428Y-17496214D02*
X9621428Y-17296214D01*
X9621428Y-17324786D02*
X9635714Y-17310500D01*
X9664286Y-17296214D01*
X9707143Y-17296214D01*
X9735714Y-17310500D01*
X9750000Y-17339072D01*
X9750000Y-17496214D01*
X9750000Y-17339072D02*
X9764286Y-17310500D01*
X9792857Y-17296214D01*
X9835714Y-17296214D01*
X9864286Y-17310500D01*
X9878571Y-17339072D01*
X9878571Y-17496214D01*
X10464286Y-17181929D02*
X10207143Y-17567643D01*
X10850000Y-17196214D02*
X10878571Y-17196214D01*
X10907143Y-17210500D01*
X10921428Y-17224786D01*
X10935714Y-17253357D01*
X10950000Y-17310500D01*
X10950000Y-17381929D01*
X10935714Y-17439072D01*
X10921428Y-17467643D01*
X10907143Y-17481929D01*
X10878571Y-17496214D01*
X10850000Y-17496214D01*
X10821428Y-17481929D01*
X10807143Y-17467643D01*
X10792857Y-17439072D01*
X10778571Y-17381929D01*
X10778571Y-17310500D01*
X10792857Y-17253357D01*
X10807143Y-17224786D01*
X10821428Y-17210500D01*
X10850000Y-17196214D01*
X11078571Y-17467643D02*
X11092857Y-17481929D01*
X11078571Y-17496214D01*
X11064286Y-17481929D01*
X11078571Y-17467643D01*
X11078571Y-17496214D01*
X11278571Y-17196214D02*
X11307143Y-17196214D01*
X11335714Y-17210500D01*
X11350000Y-17224786D01*
X11364286Y-17253357D01*
X11378571Y-17310500D01*
X11378571Y-17381929D01*
X11364286Y-17439072D01*
X11350000Y-17467643D01*
X11335714Y-17481929D01*
X11307143Y-17496214D01*
X11278571Y-17496214D01*
X11250000Y-17481929D01*
X11235714Y-17467643D01*
X11221428Y-17439072D01*
X11207143Y-17381929D01*
X11207143Y-17310500D01*
X11221428Y-17253357D01*
X11235714Y-17224786D01*
X11250000Y-17210500D01*
X11278571Y-17196214D01*
X11478571Y-17196214D02*
X11664286Y-17196214D01*
X11564286Y-17310500D01*
X11607143Y-17310500D01*
X11635714Y-17324786D01*
X11650000Y-17339072D01*
X11664286Y-17367643D01*
X11664286Y-17439072D01*
X11650000Y-17467643D01*
X11635714Y-17481929D01*
X11607143Y-17496214D01*
X11521428Y-17496214D01*
X11492857Y-17481929D01*
X11478571Y-17467643D01*
X11950000Y-17496214D02*
X11778571Y-17496214D01*
X11864286Y-17496214D02*
X11864286Y-17196214D01*
X11835714Y-17239072D01*
X11807143Y-17267643D01*
X11778571Y-17281929D01*
X12064286Y-17196214D02*
X12064286Y-17253357D01*
X12178571Y-17196214D02*
X12178571Y-17253357D01*
X12621428Y-17610500D02*
X12607143Y-17596214D01*
X12578571Y-17553357D01*
X12564286Y-17524786D01*
X12550000Y-17481929D01*
X12535714Y-17410500D01*
X12535714Y-17353357D01*
X12550000Y-17281929D01*
X12564286Y-17239072D01*
X12578571Y-17210500D01*
X12607143Y-17167643D01*
X12621428Y-17153357D01*
X12778571Y-17324786D02*
X12750000Y-17310500D01*
X12735714Y-17296214D01*
X12721428Y-17267643D01*
X12721428Y-17253357D01*
X12735714Y-17224786D01*
X12750000Y-17210500D01*
X12778571Y-17196214D01*
X12835714Y-17196214D01*
X12864286Y-17210500D01*
X12878571Y-17224786D01*
X12892857Y-17253357D01*
X12892857Y-17267643D01*
X12878571Y-17296214D01*
X12864286Y-17310500D01*
X12835714Y-17324786D01*
X12778571Y-17324786D01*
X12750000Y-17339072D01*
X12735714Y-17353357D01*
X12721428Y-17381929D01*
X12721428Y-17439072D01*
X12735714Y-17467643D01*
X12750000Y-17481929D01*
X12778571Y-17496214D01*
X12835714Y-17496214D01*
X12864286Y-17481929D01*
X12878571Y-17467643D01*
X12892857Y-17439072D01*
X12892857Y-17381929D01*
X12878571Y-17353357D01*
X12864286Y-17339072D01*
X12835714Y-17324786D01*
X13150000Y-17296214D02*
X13150000Y-17496214D01*
X13078571Y-17181929D02*
X13007143Y-17396214D01*
X13192857Y-17396214D01*
X13535714Y-17496214D02*
X13535714Y-17196214D01*
X13664286Y-17496214D02*
X13664286Y-17339072D01*
X13650000Y-17310500D01*
X13621428Y-17296214D01*
X13578571Y-17296214D01*
X13550000Y-17310500D01*
X13535714Y-17324786D01*
X13850000Y-17496214D02*
X13821428Y-17481929D01*
X13807143Y-17467643D01*
X13792857Y-17439072D01*
X13792857Y-17353357D01*
X13807143Y-17324786D01*
X13821428Y-17310500D01*
X13850000Y-17296214D01*
X13892857Y-17296214D01*
X13921428Y-17310500D01*
X13935714Y-17324786D01*
X13950000Y-17353357D01*
X13950000Y-17439072D01*
X13935714Y-17467643D01*
X13921428Y-17481929D01*
X13892857Y-17496214D01*
X13850000Y-17496214D01*
X14121428Y-17496214D02*
X14092857Y-17481929D01*
X14078571Y-17453357D01*
X14078571Y-17196214D01*
X14350000Y-17481929D02*
X14321428Y-17496214D01*
X14264286Y-17496214D01*
X14235714Y-17481929D01*
X14221428Y-17453357D01*
X14221428Y-17339072D01*
X14235714Y-17310500D01*
X14264286Y-17296214D01*
X14321428Y-17296214D01*
X14350000Y-17310500D01*
X14364286Y-17339072D01*
X14364286Y-17367643D01*
X14221428Y-17396214D01*
X14478571Y-17481929D02*
X14507143Y-17496214D01*
X14564286Y-17496214D01*
X14592857Y-17481929D01*
X14607143Y-17453357D01*
X14607143Y-17439072D01*
X14592857Y-17410500D01*
X14564286Y-17396214D01*
X14521428Y-17396214D01*
X14492857Y-17381929D01*
X14478571Y-17353357D01*
X14478571Y-17339072D01*
X14492857Y-17310500D01*
X14521428Y-17296214D01*
X14564286Y-17296214D01*
X14592857Y-17310500D01*
X14707143Y-17610500D02*
X14721428Y-17596214D01*
X14750000Y-17553357D01*
X14764286Y-17524786D01*
X14778571Y-17481929D01*
X14792857Y-17410500D01*
X14792857Y-17353357D01*
X14778571Y-17281929D01*
X14764286Y-17239072D01*
X14750000Y-17210500D01*
X14721428Y-17167643D01*
X14707143Y-17153357D01*
M02*
