M48
METRIC,TZ
T1C0.400
T2C0.800
%
G90
G05
T1
X89501Y-112559
X89971Y-122476
X96368Y-131020
X102563Y-102785
X103039Y-125178
X103780Y-114063
T2
X84954Y-81693
X84954Y-84233
X84954Y-86773
X84954Y-89313
X84954Y-91852
X84954Y-94393
X84954Y-96933
X84954Y-99473
X84954Y-102012
X84954Y-104552
X84954Y-107093
X84954Y-109632
X84954Y-112173
X84954Y-114713
X84954Y-117253
X84954Y-119793
X84954Y-122333
X84954Y-124873
X84954Y-127413
X84954Y-129952
X100194Y-81693
X100194Y-84233
X100194Y-86773
X100194Y-89313
X100194Y-91852
X100194Y-94393
X100194Y-96933
X100194Y-99473
X100194Y-102012
X100194Y-104552
X100194Y-107093
X100194Y-109632
X100194Y-112173
X100194Y-114713
X100194Y-117253
X100194Y-119793
X100194Y-122333
X100194Y-124873
X100194Y-127413
X100194Y-129952
X83693Y-140335
X83693Y-142875
X83693Y-145415
X83693Y-147955
X83693Y-150495
X83693Y-153035
X86233Y-137795
X86233Y-140335
X86233Y-142875
X86233Y-145415
X86233Y-147955
X86233Y-150495
X86233Y-153035
X86233Y-155575
X88773Y-137795
X88773Y-140335
X88773Y-153035
X88773Y-155575
X91313Y-137795
X91313Y-140335
X91313Y-153035
X91313Y-155575
X93853Y-137795
X93853Y-140335
X93853Y-153035
X93853Y-155575
X96393Y-137795
X96393Y-140335
X96393Y-153035
X96393Y-155575
X98933Y-137795
X98933Y-140335
X98933Y-142875
X98933Y-145415
X98933Y-147955
X98933Y-150495
X98933Y-153035
X98933Y-155575
X101473Y-140335
X101473Y-142875
X101473Y-145415
X101473Y-147955
X101473Y-150495
X101473Y-153035
T0
M30
