%TF.GenerationSoftware,KiCad,Pcbnew,(5.1.7)-1*%
%TF.CreationDate,2020-11-01T14:15:20+00:00*%
%TF.ProjectId,PLCC44-EPROM-Adapter,504c4343-3434-42d4-9550-524f4d2d4164,rev?*%
%TF.SameCoordinates,Original*%
%TF.FileFunction,Copper,L2,Bot*%
%TF.FilePolarity,Positive*%
%FSLAX46Y46*%
G04 Gerber Fmt 4.6, Leading zero omitted, Abs format (unit mm)*
G04 Created by KiCad (PCBNEW (5.1.7)-1) date 2020-11-01 14:15:20*
%MOMM*%
%LPD*%
G01*
G04 APERTURE LIST*
%TA.AperFunction,ComponentPad*%
%ADD10O,1.600000X1.600000*%
%TD*%
%TA.AperFunction,ComponentPad*%
%ADD11R,1.600000X1.600000*%
%TD*%
%TA.AperFunction,ComponentPad*%
%ADD12C,1.422400*%
%TD*%
%TA.AperFunction,ComponentPad*%
%ADD13R,1.422400X1.422400*%
%TD*%
%TA.AperFunction,ViaPad*%
%ADD14C,0.800000*%
%TD*%
%TA.AperFunction,Conductor*%
%ADD15C,0.250000*%
%TD*%
G04 APERTURE END LIST*
D10*
%TO.P,U2,40*%
%TO.N,/VCC*%
X100194000Y-81692500D03*
%TO.P,U2,20*%
%TO.N,/_OE*%
X84954000Y-129952500D03*
%TO.P,U2,39*%
%TO.N,/A17*%
X100194000Y-84232500D03*
%TO.P,U2,19*%
%TO.N,/D0*%
X84954000Y-127412500D03*
%TO.P,U2,38*%
%TO.N,/A16*%
X100194000Y-86772500D03*
%TO.P,U2,18*%
%TO.N,/D1*%
X84954000Y-124872500D03*
%TO.P,U2,37*%
%TO.N,/A15*%
X100194000Y-89312500D03*
%TO.P,U2,17*%
%TO.N,/D2*%
X84954000Y-122332500D03*
%TO.P,U2,36*%
%TO.N,/A14*%
X100194000Y-91852500D03*
%TO.P,U2,16*%
%TO.N,/D3*%
X84954000Y-119792500D03*
%TO.P,U2,35*%
%TO.N,/A13*%
X100194000Y-94392500D03*
%TO.P,U2,15*%
%TO.N,/D4*%
X84954000Y-117252500D03*
%TO.P,U2,34*%
%TO.N,/A12*%
X100194000Y-96932500D03*
%TO.P,U2,14*%
%TO.N,Net-(U2-Pad14)*%
X84954000Y-114712500D03*
%TO.P,U2,33*%
%TO.N,/A11*%
X100194000Y-99472500D03*
%TO.P,U2,13*%
%TO.N,/D6*%
X84954000Y-112172500D03*
%TO.P,U2,32*%
%TO.N,/A10*%
X100194000Y-102012500D03*
%TO.P,U2,12*%
%TO.N,/D7*%
X84954000Y-109632500D03*
%TO.P,U2,31*%
%TO.N,/A9*%
X100194000Y-104552500D03*
%TO.P,U2,11*%
%TO.N,/GND1*%
X84954000Y-107092500D03*
%TO.P,U2,30*%
%TO.N,/GND2*%
X100194000Y-107092500D03*
%TO.P,U2,10*%
%TO.N,/D8*%
X84954000Y-104552500D03*
%TO.P,U2,29*%
%TO.N,/A8*%
X100194000Y-109632500D03*
%TO.P,U2,9*%
%TO.N,/D9*%
X84954000Y-102012500D03*
%TO.P,U2,28*%
%TO.N,/A7*%
X100194000Y-112172500D03*
%TO.P,U2,8*%
%TO.N,/D10*%
X84954000Y-99472500D03*
%TO.P,U2,27*%
%TO.N,/A6*%
X100194000Y-114712500D03*
%TO.P,U2,7*%
%TO.N,/D11*%
X84954000Y-96932500D03*
%TO.P,U2,26*%
%TO.N,/A5*%
X100194000Y-117252500D03*
%TO.P,U2,6*%
%TO.N,/D12*%
X84954000Y-94392500D03*
%TO.P,U2,25*%
%TO.N,/A4*%
X100194000Y-119792500D03*
%TO.P,U2,5*%
%TO.N,/D13*%
X84954000Y-91852500D03*
%TO.P,U2,24*%
%TO.N,/A3*%
X100194000Y-122332500D03*
%TO.P,U2,4*%
%TO.N,/D14*%
X84954000Y-89312500D03*
%TO.P,U2,23*%
%TO.N,/A2*%
X100194000Y-124872500D03*
%TO.P,U2,3*%
%TO.N,/D15*%
X84954000Y-86772500D03*
%TO.P,U2,22*%
%TO.N,/A1*%
X100194000Y-127412500D03*
%TO.P,U2,2*%
%TO.N,/_CE*%
X84954000Y-84232500D03*
%TO.P,U2,21*%
%TO.N,/A0*%
X100194000Y-129952500D03*
D11*
%TO.P,U2,1*%
%TO.N,/VPP*%
X84954000Y-81692500D03*
%TD*%
D12*
%TO.P,U1,39*%
%TO.N,/A13*%
X101473000Y-140335000D03*
%TO.P,U1,37*%
%TO.N,/A11*%
X101473000Y-142875000D03*
%TO.P,U1,35*%
%TO.N,/A9*%
X101473000Y-145415000D03*
%TO.P,U1,33*%
%TO.N,Net-(U1-Pad33)*%
X101473000Y-147955000D03*
%TO.P,U1,31*%
%TO.N,/A7*%
X101473000Y-150495000D03*
%TO.P,U1,40*%
%TO.N,/A14*%
X98933000Y-137795000D03*
%TO.P,U1,38*%
%TO.N,/A12*%
X98933000Y-142875000D03*
%TO.P,U1,36*%
%TO.N,/A10*%
X98933000Y-145415000D03*
%TO.P,U1,34*%
%TO.N,/GND2*%
X98933000Y-147955000D03*
%TO.P,U1,32*%
%TO.N,/A8*%
X98933000Y-150495000D03*
%TO.P,U1,30*%
%TO.N,/A6*%
X98933000Y-153035000D03*
%TO.P,U1,28*%
%TO.N,/A4*%
X98933000Y-155575000D03*
%TO.P,U1,26*%
%TO.N,/A2*%
X96393000Y-155575000D03*
%TO.P,U1,24*%
%TO.N,/A0*%
X93853000Y-155575000D03*
%TO.P,U1,22*%
%TO.N,/_OE*%
X91313000Y-155575000D03*
%TO.P,U1,20*%
%TO.N,/D1*%
X88773000Y-155575000D03*
%TO.P,U1,18*%
%TO.N,/D3*%
X86233000Y-155575000D03*
%TO.P,U1,29*%
%TO.N,/A5*%
X101473000Y-153035000D03*
%TO.P,U1,27*%
%TO.N,/A3*%
X96393000Y-153035000D03*
%TO.P,U1,25*%
%TO.N,/A1*%
X93853000Y-153035000D03*
%TO.P,U1,23*%
%TO.N,Net-(U1-Pad23)*%
X91313000Y-153035000D03*
%TO.P,U1,21*%
%TO.N,/D0*%
X88773000Y-153035000D03*
%TO.P,U1,19*%
%TO.N,/D2*%
X86233000Y-153035000D03*
%TO.P,U1,17*%
%TO.N,/D4*%
X83693000Y-153035000D03*
%TO.P,U1,15*%
%TO.N,/D6*%
X83693000Y-150495000D03*
%TO.P,U1,13*%
%TO.N,Net-(U1-Pad13)*%
X83693000Y-147955000D03*
%TO.P,U1,11*%
%TO.N,/D8*%
X83693000Y-145415000D03*
%TO.P,U1,9*%
%TO.N,/D10*%
X83693000Y-142875000D03*
%TO.P,U1,7*%
%TO.N,/D12*%
X83693000Y-140335000D03*
%TO.P,U1,16*%
%TO.N,/D5*%
X86233000Y-150495000D03*
%TO.P,U1,14*%
%TO.N,/D7*%
X86233000Y-147955000D03*
%TO.P,U1,12*%
%TO.N,/GND1*%
X86233000Y-145415000D03*
%TO.P,U1,10*%
%TO.N,/D9*%
X86233000Y-142875000D03*
%TO.P,U1,8*%
%TO.N,/D11*%
X86233000Y-140335000D03*
%TO.P,U1,42*%
%TO.N,/A16*%
X96393000Y-137795000D03*
%TO.P,U1,44*%
%TO.N,/VCC*%
X93853000Y-137795000D03*
%TO.P,U1,6*%
%TO.N,/D13*%
X86233000Y-137795000D03*
%TO.P,U1,4*%
%TO.N,/D15*%
X88773000Y-137795000D03*
%TO.P,U1,2*%
%TO.N,/VPP*%
X91313000Y-137795000D03*
%TO.P,U1,41*%
%TO.N,/A15*%
X98933000Y-140335000D03*
%TO.P,U1,43*%
%TO.N,/A17*%
X96393000Y-140335000D03*
%TO.P,U1,5*%
%TO.N,/D14*%
X88773000Y-140335000D03*
%TO.P,U1,3*%
%TO.N,/_CE*%
X91313000Y-140335000D03*
D13*
%TO.P,U1,1*%
%TO.N,Net-(U1-Pad1)*%
X93853000Y-140335000D03*
%TD*%
D14*
%TO.N,/A11*%
X102563200Y-102785100D03*
%TO.N,/A10*%
X96368100Y-131020000D03*
%TO.N,/D7*%
X89971400Y-122476400D03*
%TO.N,/A8*%
X103780400Y-114062800D03*
%TO.N,/GND1*%
X89501400Y-112559300D03*
%TO.N,/A3*%
X103039400Y-125177900D03*
%TD*%
D15*
%TO.N,/D1*%
X84954000Y-124872500D02*
X84954000Y-125997800D01*
X88773000Y-155575000D02*
X89809800Y-156611800D01*
X89809800Y-156611800D02*
X91761100Y-156611800D01*
X91761100Y-156611800D02*
X92359300Y-156013600D01*
X92359300Y-156013600D02*
X92359300Y-144184900D01*
X92359300Y-144184900D02*
X89820900Y-141646500D01*
X89820900Y-141646500D02*
X89820900Y-130583400D01*
X89820900Y-130583400D02*
X85235300Y-125997800D01*
X85235300Y-125997800D02*
X84954000Y-125997800D01*
%TO.N,/D2*%
X84954000Y-122332500D02*
X84954000Y-123457800D01*
X84954000Y-123457800D02*
X84672600Y-123457800D01*
X84672600Y-123457800D02*
X83828700Y-124301700D01*
X83828700Y-124301700D02*
X83828700Y-131248100D01*
X83828700Y-131248100D02*
X85189800Y-132609200D01*
X85189800Y-132609200D02*
X85189800Y-151991800D01*
X85189800Y-151991800D02*
X86233000Y-153035000D01*
%TO.N,/D3*%
X84954000Y-120917800D02*
X84672600Y-120917800D01*
X84672600Y-120917800D02*
X83378400Y-122212000D01*
X83378400Y-122212000D02*
X83378400Y-131660000D01*
X83378400Y-131660000D02*
X84739400Y-133021000D01*
X84739400Y-133021000D02*
X84739400Y-154081400D01*
X84739400Y-154081400D02*
X86233000Y-155575000D01*
X84954000Y-119792500D02*
X84954000Y-120917800D01*
%TO.N,/A11*%
X100194000Y-100597800D02*
X100375900Y-100597800D01*
X100375900Y-100597800D02*
X102563200Y-102785100D01*
X100194000Y-99472500D02*
X100194000Y-100597800D01*
%TO.N,/A10*%
X100194000Y-102012500D02*
X100194000Y-103137800D01*
X96368100Y-131020000D02*
X96368100Y-106682400D01*
X96368100Y-106682400D02*
X99912700Y-103137800D01*
X99912700Y-103137800D02*
X100194000Y-103137800D01*
%TO.N,/A9*%
X100194000Y-104552500D02*
X100194000Y-105677800D01*
X101473000Y-145415000D02*
X100418100Y-144360100D01*
X100418100Y-144360100D02*
X100418100Y-137124800D01*
X100418100Y-137124800D02*
X101322100Y-136220800D01*
X101322100Y-136220800D02*
X101322100Y-129487500D01*
X101322100Y-129487500D02*
X100447700Y-128613100D01*
X100447700Y-128613100D02*
X99758200Y-128613100D01*
X99758200Y-128613100D02*
X98606300Y-127461200D01*
X98606300Y-127461200D02*
X98606300Y-106984200D01*
X98606300Y-106984200D02*
X99912700Y-105677800D01*
X99912700Y-105677800D02*
X100194000Y-105677800D01*
%TO.N,/D7*%
X84954000Y-109632500D02*
X84954000Y-110757800D01*
X89971400Y-122476400D02*
X89971400Y-115493900D01*
X89971400Y-115493900D02*
X85235300Y-110757800D01*
X85235300Y-110757800D02*
X84954000Y-110757800D01*
%TO.N,/A8*%
X100194000Y-110757800D02*
X100475400Y-110757800D01*
X100475400Y-110757800D02*
X103780400Y-114062800D01*
X100194000Y-109632500D02*
X100194000Y-110757800D01*
%TO.N,/GND1*%
X84954000Y-108217800D02*
X85159900Y-108217800D01*
X85159900Y-108217800D02*
X89501400Y-112559300D01*
X84954000Y-107092500D02*
X84954000Y-108217800D01*
%TO.N,/A7*%
X100194000Y-112172500D02*
X100194000Y-113297800D01*
X101473000Y-150495000D02*
X103435500Y-148532500D01*
X103435500Y-148532500D02*
X103435500Y-127428900D01*
X103435500Y-127428900D02*
X101875500Y-125868900D01*
X101875500Y-125868900D02*
X101875500Y-124879300D01*
X101875500Y-124879300D02*
X100598700Y-123602500D01*
X100598700Y-123602500D02*
X99833600Y-123602500D01*
X99833600Y-123602500D02*
X99068700Y-122837600D01*
X99068700Y-122837600D02*
X99068700Y-114141700D01*
X99068700Y-114141700D02*
X99912600Y-113297800D01*
X99912600Y-113297800D02*
X100194000Y-113297800D01*
%TO.N,/A6*%
X100194000Y-114712500D02*
X100194000Y-115837800D01*
X98933000Y-153035000D02*
X98933000Y-153877400D01*
X98933000Y-153877400D02*
X97887900Y-154922500D01*
X97887900Y-154922500D02*
X97887900Y-156000900D01*
X97887900Y-156000900D02*
X98573400Y-156686400D01*
X98573400Y-156686400D02*
X99311900Y-156686400D01*
X99311900Y-156686400D02*
X104853600Y-151144700D01*
X104853600Y-151144700D02*
X104853600Y-120216100D01*
X104853600Y-120216100D02*
X100475300Y-115837800D01*
X100475300Y-115837800D02*
X100194000Y-115837800D01*
%TO.N,/A5*%
X101473000Y-153035000D02*
X104396000Y-150112000D01*
X104396000Y-150112000D02*
X104396000Y-122298500D01*
X104396000Y-122298500D02*
X100475300Y-118377800D01*
X100475300Y-118377800D02*
X100194000Y-118377800D01*
X100194000Y-117252500D02*
X100194000Y-118377800D01*
%TO.N,/D10*%
X84954000Y-100597800D02*
X84672700Y-100597800D01*
X84672700Y-100597800D02*
X82477800Y-102792700D01*
X82477800Y-102792700D02*
X82477800Y-141659800D01*
X82477800Y-141659800D02*
X83693000Y-142875000D01*
X84954000Y-99472500D02*
X84954000Y-100597800D01*
%TO.N,/A4*%
X98933000Y-155575000D02*
X100268800Y-154239200D01*
X100268800Y-154239200D02*
X100268800Y-152760100D01*
X100268800Y-152760100D02*
X101263900Y-151765000D01*
X101263900Y-151765000D02*
X101743400Y-151765000D01*
X101743400Y-151765000D02*
X103945700Y-149562700D01*
X103945700Y-149562700D02*
X103945700Y-124396000D01*
X103945700Y-124396000D02*
X100467500Y-120917800D01*
X100467500Y-120917800D02*
X100194000Y-120917800D01*
X100194000Y-119792500D02*
X100194000Y-120917800D01*
%TO.N,/A3*%
X103039400Y-125177900D02*
X100194000Y-122332500D01*
%TO.N,/D12*%
X84954000Y-95517800D02*
X85235300Y-95517800D01*
X85235300Y-95517800D02*
X86080100Y-96362600D01*
X86080100Y-96362600D02*
X86080100Y-102527200D01*
X86080100Y-102527200D02*
X85324800Y-103282500D01*
X85324800Y-103282500D02*
X84609900Y-103282500D01*
X84609900Y-103282500D02*
X82928100Y-104964300D01*
X82928100Y-104964300D02*
X82928100Y-139570100D01*
X82928100Y-139570100D02*
X83693000Y-140335000D01*
X84954000Y-94392500D02*
X84954000Y-95517800D01*
%TO.N,/A2*%
X100194000Y-125997800D02*
X100475300Y-125997800D01*
X100475300Y-125997800D02*
X102975400Y-128497900D01*
X102975400Y-128497900D02*
X102975400Y-147932700D01*
X102975400Y-147932700D02*
X101908400Y-148999700D01*
X101908400Y-148999700D02*
X101473900Y-148999700D01*
X101473900Y-148999700D02*
X100284400Y-150189200D01*
X100284400Y-150189200D02*
X100284400Y-150664100D01*
X100284400Y-150664100D02*
X99416900Y-151531600D01*
X99416900Y-151531600D02*
X98916000Y-151531600D01*
X98916000Y-151531600D02*
X97896400Y-152551200D01*
X97896400Y-152551200D02*
X97896400Y-154071600D01*
X97896400Y-154071600D02*
X96393000Y-155575000D01*
X100194000Y-124872500D02*
X100194000Y-125997800D01*
%TO.N,/A1*%
X93853000Y-153035000D02*
X97672100Y-149215900D01*
X97672100Y-149215900D02*
X99150100Y-149215900D01*
X99150100Y-149215900D02*
X100418300Y-147947700D01*
X100418300Y-147947700D02*
X100418300Y-147433100D01*
X100418300Y-147433100D02*
X101166400Y-146685000D01*
X101166400Y-146685000D02*
X101670200Y-146685000D01*
X101670200Y-146685000D02*
X102525000Y-145830200D01*
X102525000Y-145830200D02*
X102525000Y-129743500D01*
X102525000Y-129743500D02*
X100194000Y-127412500D01*
%TO.N,/A0*%
X100194000Y-131077800D02*
X97759700Y-133512100D01*
X97759700Y-133512100D02*
X97759700Y-141135100D01*
X97759700Y-141135100D02*
X92809700Y-146085100D01*
X92809700Y-146085100D02*
X92809700Y-154531700D01*
X92809700Y-154531700D02*
X93853000Y-155575000D01*
X100194000Y-129952500D02*
X100194000Y-131077800D01*
%TO.N,/_CE*%
X91313000Y-140335000D02*
X90271300Y-139293300D01*
X90271300Y-139293300D02*
X90271300Y-124057000D01*
X90271300Y-124057000D02*
X90705700Y-123622600D01*
X90705700Y-123622600D02*
X90705700Y-90828200D01*
X90705700Y-90828200D02*
X85235300Y-85357800D01*
X85235300Y-85357800D02*
X84954000Y-85357800D01*
X84954000Y-84232500D02*
X84954000Y-85357800D01*
%TO.N,/_OE*%
X84954000Y-129952500D02*
X84954000Y-131077800D01*
X84954000Y-131077800D02*
X87269600Y-133393400D01*
X87269600Y-133393400D02*
X87269600Y-153055200D01*
X87269600Y-153055200D02*
X88519400Y-154305000D01*
X88519400Y-154305000D02*
X90043000Y-154305000D01*
X90043000Y-154305000D02*
X91313000Y-155575000D01*
%TO.N,/D0*%
X84954000Y-127412500D02*
X84954000Y-128537800D01*
X88773000Y-153035000D02*
X87736500Y-151998500D01*
X87736500Y-151998500D02*
X87736500Y-131039000D01*
X87736500Y-131039000D02*
X85235300Y-128537800D01*
X85235300Y-128537800D02*
X84954000Y-128537800D01*
%TO.N,/A16*%
X100194000Y-86772500D02*
X100194000Y-87897800D01*
X96393000Y-137795000D02*
X95627200Y-137029200D01*
X95627200Y-137029200D02*
X95627200Y-92183300D01*
X95627200Y-92183300D02*
X99912700Y-87897800D01*
X99912700Y-87897800D02*
X100194000Y-87897800D01*
%TD*%
M02*
